<?xml version="1.0" standalone="no"?>
<!DOCTYPE svg PUBLIC "-//W3C//DTD SVG 20010904//EN"
 "http://www.w3.org/TR/2001/REC-SVG-20010904/DTD/svg10.dtd">
<svg version="1.0" xmlns="http://www.w3.org/2000/svg"
 width="512.000000pt" height="512.000000pt" viewBox="0 0 512.000000 512.000000"
 preserveAspectRatio="xMidYMid meet">
<metadata>
Created by potrace 1.14, written by Peter Selinger 2001-2017
</metadata>
<g transform="translate(0.000000,512.000000) scale(0.100000,-0.100000)"
fill="#000000" stroke="none">
<path d="M1285 5105 c-643 -100 -1139 -578 -1262 -1216 -17 -88 -18 -178 -18
-1334 l0 -1240 23 -105 c69 -315 199 -555 415 -771 188 -189 428 -327 677
-390 186 -47 180 -47 1480 -45 l1225 2 110 27 c149 36 241 69 359 129 295 149
520 375 670 675 41 82 101 242 112 297 12 63 24 125 31 151 4 17 8 577 9 1245
2 1327 3 1300 -56 1505 -157 544 -632 974 -1170 1060 -19 3 -60 10 -90 15 -89
14 -2418 10 -2515 -5z m2620 -113 c179 -44 312 -97 445 -179 352 -217 593
-582 657 -993 10 -68 11 -2434 1 -2508 -76 -541 -466 -996 -985 -1151 -102
-30 -126 -35 -223 -48 -69 -10 -2431 -10 -2485 -1 -22 4 -58 10 -80 13 -135
23 -331 100 -464 183 -163 102 -275 205 -409 377 -33 42 -110 179 -142 252
-35 80 -82 224 -95 292 -17 90 -20 275 -20 1346 0 1031 4 1288 21 1316 2 3 6
20 9 37 9 56 56 192 91 269 117 257 316 480 560 626 142 85 307 146 484 177
99 18 173 18 1325 16 1219 -2 1220 -2 1310 -24z"/>
<path d="M2400 3922 c-42 -5 -80 -24 -93 -46 -17 -32 -19 -413 -2 -447 22 -42
38 -49 162 -70 65 -11 128 -22 141 -24 l22 -5 0 -643 c0 -386 -4 -656 -10
-676 -26 -93 -102 -146 -206 -145 -45 1 -73 8 -105 25 -66 36 -91 95 -114 269
-8 55 -28 88 -61 100 -39 15 -613 13 -644 -3 -42 -21 -61 -72 -55 -147 23
-295 102 -482 270 -645 118 -114 263 -188 452 -230 357 -78 709 -30 927 126
142 103 261 272 303 434 40 157 42 178 42 896 l1 645 63 13 c34 7 76 15 92 18
42 7 81 32 94 59 13 29 13 409 -1 439 -5 12 -23 30 -40 39 -27 17 -75 18 -621
20 -326 0 -603 0 -617 -2z m657 -101 l531 -1 1 -174 c0 -194 7 -177 -74 -192
-22 -4 -44 -8 -50 -10 -5 -2 -38 -8 -72 -15 l-63 -13 -1 -675 c0 -372 -2 -689
-3 -706 -23 -277 -122 -469 -311 -598 -161 -111 -386 -156 -660 -132 -501 43
-784 318 -820 798 l-5 67 280 0 280 0 4 -22 c2 -13 10 -55 16 -95 31 -191 132
-286 305 -287 108 -1 194 38 247 110 70 97 67 68 68 843 l0 697 -107 18 c-60
9 -124 20 -143 23 -19 3 -42 7 -50 8 -8 2 -20 4 -25 4 -7 1 -11 64 -11 175
l-1 175 31 3 c17 2 47 2 66 1 19 -1 274 -2 567 -2z"/>
</g>
</svg>
